<mxfile host="app.diagrams.net" modified="2023-04-23T07:18:47.095Z" agent="Mozilla/5.0 (Macintosh; Intel Mac OS X 10_15_7) AppleWebKit/537.36 (KHTML, like Gecko) Chrome/112.0.0.0 Safari/537.36" etag="cBFbOHeGk6QphlCpniqF" version="21.2.1" type="github">
  <diagram name="Page-1" id="3reoFhjak-72XTqoUAUv">
    <mxGraphModel dx="1792" dy="657" grid="1" gridSize="10" guides="1" tooltips="1" connect="1" arrows="1" fold="1" page="1" pageScale="1" pageWidth="827" pageHeight="1169" math="0" shadow="0">
      <root>
        <mxCell id="0" />
        <mxCell id="1" parent="0" />
        <UserObject label="" plantUmlData="{&#xa;  &quot;data&quot;: &quot;@startuml\nstate        修改未关联状态\nstate        模型关联情况与编码填写不对称\nstate        修改已关联绑定模型\n\n\n\n    state    没有关联了模型\n    state    关联了模型\n关联了模型 --&gt; 模型关联情况与编码填写不对称 : 已关联模型编码空值\n关联了模型 --&gt; 修改已关联绑定模型 : 已关联模型或者空值模型编码有值\n关联了模型 --&gt; 模型关联情况与编码填写不对称 : 未关联编码有值\n没有关联了模型 --&gt; 修改未关联状态 : 未关联编码空值\n没有关联了模型 --&gt; 模型关联情况与编码填写不对称 : 已关联模型编码空值\n没有关联了模型 --&gt; 修改已关联绑定模型 : 已关联模型或者空值模型编码有值\n没有关联了模型 --&gt; 模型关联情况与编码填写不对称 : 未关联编码有值\n@enduml\n&quot;,&#xa;  &quot;format&quot;: &quot;svg&quot;&#xa;}" id="kAUD5IzYBhns9fxaHrP5-16">
          <mxCell style="shape=image;noLabel=1;verticalAlign=top;imageAspect=0;image=data:image/svg+xml,PD94bWwgdmVyc2lvbj0iMS4wIiBlbmNvZGluZz0idXMtYXNjaWkiIHN0YW5kYWxvbmU9Im5vIj8+PHN2ZyB4bWxucz0iaHR0cDovL3d3dy53My5vcmcvMjAwMC9zdmciIHhtbG5zOnhsaW5rPSJodHRwOi8vd3d3LnczLm9yZy8xOTk5L3hsaW5rIiBjb250ZW50U3R5bGVUeXBlPSJ0ZXh0L2NzcyIgaGVpZ2h0PSIxODhweCIgcHJlc2VydmVBc3BlY3RSYXRpbz0ibm9uZSIgc3R5bGU9IndpZHRoOjExNTlweDtoZWlnaHQ6MTg4cHg7YmFja2dyb3VuZDojRkZGRkZGOyIgdmVyc2lvbj0iMS4xIiB2aWV3Qm94PSIwIDAgMTE1OSAxODgiIHdpZHRoPSIxMTU5cHgiIHpvb21BbmRQYW49Im1hZ25pZnkiPjxkZWZzLz48Zz48ZyBpZD0iJiMyMDQ2MjsmIzI1OTEzOyYjMjY0MTA7JiMyMDg1MTsmIzMyODUyOyYjMjkzNjY7JiMyNDU3NzsiPjxyZWN0IGZpbGw9IiNGMUYxRjEiIGhlaWdodD0iNTAiIHJ4PSIxMi41IiByeT0iMTIuNSIgc3R5bGU9InN0cm9rZTojMTgxODE4O3N0cm9rZS13aWR0aDowLjU7IiB3aWR0aD0iMTE4IiB4PSIxMDM0LjA1IiB5PSIxMzIiLz48bGluZSBzdHlsZT0ic3Ryb2tlOiMxODE4MTg7c3Ryb2tlLXdpZHRoOjAuNTsiIHgxPSIxMDM0LjA1IiB4Mj0iMTE1Mi4wNSIgeTE9IjE1Ni45ODQ0IiB5Mj0iMTU2Ljk4NDQiLz48dGV4dCBmaWxsPSIjMDAwMDAwIiBmb250LWZhbWlseT0ic2Fucy1zZXJpZiIgZm9udC1zaXplPSIxNCIgbGVuZ3RoQWRqdXN0PSJzcGFjaW5nIiB0ZXh0TGVuZ3RoPSI5OCIgeD0iMTA0NC4wNSIgeT0iMTUwLjIzNDQiPiYjMjA0NjI7JiMyNTkxMzsmIzI2NDEwOyYjMjA4NTE7JiMzMjg1MjsmIzI5MzY2OyYjMjQ1Nzc7PC90ZXh0PjwvZz48ZyBpZD0iJiMyNzE2OTsmIzIyNDExOyYjMjA4NTE7JiMzMjg1MjsmIzI0NzczOyYjMjA5MTc7JiMxOTk4MjsmIzMyNTM0OyYjMzA3MjE7JiMyMjYzNTsmIzIwODg5OyYjMTk5ODE7JiMyMzU0NTsmIzMxMjE2OyI+PHJlY3QgZmlsbD0iI0YxRjFGMSIgaGVpZ2h0PSI1MCIgcng9IjEyLjUiIHJ5PSIxMi41IiBzdHlsZT0ic3Ryb2tlOiMxODE4MTg7c3Ryb2tlLXdpZHRoOjAuNTsiIHdpZHRoPSIyMTYiIHg9IjY4My4wNSIgeT0iMTMyIi8+PGxpbmUgc3R5bGU9InN0cm9rZTojMTgxODE4O3N0cm9rZS13aWR0aDowLjU7IiB4MT0iNjgzLjA1IiB4Mj0iODk5LjA1IiB5MT0iMTU2Ljk4NDQiIHkyPSIxNTYuOTg0NCIvPjx0ZXh0IGZpbGw9IiMwMDAwMDAiIGZvbnQtZmFtaWx5PSJzYW5zLXNlcmlmIiBmb250LXNpemU9IjE0IiBsZW5ndGhBZGp1c3Q9InNwYWNpbmciIHRleHRMZW5ndGg9IjE5NiIgeD0iNjkzLjA1IiB5PSIxNTAuMjM0NCI+JiMyNzE2OTsmIzIyNDExOyYjMjA4NTE7JiMzMjg1MjsmIzI0NzczOyYjMjA5MTc7JiMxOTk4MjsmIzMyNTM0OyYjMzA3MjE7JiMyMjYzNTsmIzIwODg5OyYjMTk5ODE7JiMyMzU0NTsmIzMxMjE2OzwvdGV4dD48L2c+PGcgaWQ9IiYjMjA0NjI7JiMyNTkxMzsmIzI0MDUwOyYjMjA4NTE7JiMzMjg1MjsmIzMyNDY1OyYjMjM0NTA7JiMyNzE2OTsmIzIyNDExOyI+PHJlY3QgZmlsbD0iI0YxRjFGMSIgaGVpZ2h0PSI1MCIgcng9IjEyLjUiIHJ5PSIxMi41IiBzdHlsZT0ic3Ryb2tlOiMxODE4MTg7c3Ryb2tlLXdpZHRoOjAuNTsiIHdpZHRoPSIxNDYiIHg9IjIyNy4wNSIgeT0iMTMyIi8+PGxpbmUgc3R5bGU9InN0cm9rZTojMTgxODE4O3N0cm9rZS13aWR0aDowLjU7IiB4MT0iMjI3LjA1IiB4Mj0iMzczLjA1IiB5MT0iMTU2Ljk4NDQiIHkyPSIxNTYuOTg0NCIvPjx0ZXh0IGZpbGw9IiMwMDAwMDAiIGZvbnQtZmFtaWx5PSJzYW5zLXNlcmlmIiBmb250LXNpemU9IjE0IiBsZW5ndGhBZGp1c3Q9InNwYWNpbmciIHRleHRMZW5ndGg9IjEyNiIgeD0iMjM3LjA1IiB5PSIxNTAuMjM0NCI+JiMyMDQ2MjsmIzI1OTEzOyYjMjQwNTA7JiMyMDg1MTsmIzMyODUyOyYjMzI0NjU7JiMyMzQ1MDsmIzI3MTY5OyYjMjI0MTE7PC90ZXh0PjwvZz48ZyBpZD0iJiMyNzgwOTsmIzI2Mzc3OyYjMjA4NTE7JiMzMjg1MjsmIzIwMTAyOyYjMjcxNjk7JiMyMjQxMTsiPjxyZWN0IGZpbGw9IiNGMUYxRjEiIGhlaWdodD0iNTAiIHJ4PSIxMi41IiByeT0iMTIuNSIgc3R5bGU9InN0cm9rZTojMTgxODE4O3N0cm9rZS13aWR0aDowLjU7IiB3aWR0aD0iMTE4IiB4PSI4MDguMDUiIHk9IjciLz48bGluZSBzdHlsZT0ic3Ryb2tlOiMxODE4MTg7c3Ryb2tlLXdpZHRoOjAuNTsiIHgxPSI4MDguMDUiIHgyPSI5MjYuMDUiIHkxPSIzMS45ODQ0IiB5Mj0iMzEuOTg0NCIvPjx0ZXh0IGZpbGw9IiMwMDAwMDAiIGZvbnQtZmFtaWx5PSJzYW5zLXNlcmlmIiBmb250LXNpemU9IjE0IiBsZW5ndGhBZGp1c3Q9InNwYWNpbmciIHRleHRMZW5ndGg9Ijk4IiB4PSI4MTguMDUiIHk9IjI1LjIzNDQiPiYjMjc4MDk7JiMyNjM3NzsmIzIwODUxOyYjMzI4NTI7JiMyMDEwMjsmIzI3MTY5OyYjMjI0MTE7PC90ZXh0PjwvZz48ZyBpZD0iJiMyMDg1MTsmIzMyODUyOyYjMjAxMDI7JiMyNzE2OTsmIzIyNDExOyI+PHJlY3QgZmlsbD0iI0YxRjFGMSIgaGVpZ2h0PSI1MCIgcng9IjEyLjUiIHJ5PSIxMi41IiBzdHlsZT0ic3Ryb2tlOiMxODE4MTg7c3Ryb2tlLXdpZHRoOjAuNTsiIHdpZHRoPSI5MCIgeD0iMjI3LjA1IiB5PSI3Ii8+PGxpbmUgc3R5bGU9InN0cm9rZTojMTgxODE4O3N0cm9rZS13aWR0aDowLjU7IiB4MT0iMjI3LjA1IiB4Mj0iMzE3LjA1IiB5MT0iMzEuOTg0NCIgeTI9IjMxLjk4NDQiLz48dGV4dCBmaWxsPSIjMDAwMDAwIiBmb250LWZhbWlseT0ic2Fucy1zZXJpZiIgZm9udC1zaXplPSIxNCIgbGVuZ3RoQWRqdXN0PSJzcGFjaW5nIiB0ZXh0TGVuZ3RoPSI3MCIgeD0iMjM3LjA1IiB5PSIyNS4yMzQ0Ij4mIzIwODUxOyYjMzI4NTI7JiMyMDEwMjsmIzI3MTY5OyYjMjI0MTE7PC90ZXh0PjwvZz48IS0tbGluayA/Pz8/PyB0byA/Pz8/Pz8/Pz8/Pz8/Py0tPjxnIGlkPSJsaW5rXyYjMjA4NTE7JiMzMjg1MjsmIzIwMTAyOyYjMjcxNjk7JiMyMjQxMTtfJiMyNzE2OTsmIzIyNDExOyYjMjA4NTE7JiMzMjg1MjsmIzI0NzczOyYjMjA5MTc7JiMxOTk4MjsmIzMyNTM0OyYjMzA3MjE7JiMyMjYzNTsmIzIwODg5OyYjMTk5ODE7JiMyMzU0NTsmIzMxMjE2OyI+PHBhdGggZD0iTTI2My4yNCw1Ny4yOCBDMjU5LjYsNzIgMjU4LjM3LDkwLjE2IDI2OS4wNSwxMDIgQzI5NS44OSwxMzEuNzUgNTMyLjMzLDE0Ni4xMiA2NzcuNjMsMTUyLjE5ICIgZmlsbD0ibm9uZSIgaWQ9IiYjMjA4NTE7JiMzMjg1MjsmIzIwMTAyOyYjMjcxNjk7JiMyMjQxMTstdG8tJiMyNzE2OTsmIzIyNDExOyYjMjA4NTE7JiMzMjg1MjsmIzI0NzczOyYjMjA5MTc7JiMxOTk4MjsmIzMyNTM0OyYjMzA3MjE7JiMyMjYzNTsmIzIwODg5OyYjMTk5ODE7JiMyMzU0NTsmIzMxMjE2OyIgc3R5bGU9InN0cm9rZTojMTgxODE4O3N0cm9rZS13aWR0aDoxLjA7Ii8+PHBvbHlnb24gZmlsbD0iIzE4MTgxOCIgcG9pbnRzPSI2ODIuNzYsMTUyLjQsNjczLjkyNzYsMTQ4LjA0MjUsNjc3Ljc2NCwxNTIuMTk5Niw2NzMuNjA2OSwxNTYuMDM2LDY4Mi43NiwxNTIuNCIgc3R5bGU9InN0cm9rZTojMTgxODE4O3N0cm9rZS13aWR0aDoxLjA7Ii8+PHRleHQgZmlsbD0iIzAwMDAwMCIgZm9udC1mYW1pbHk9InNhbnMtc2VyaWYiIGZvbnQtc2l6ZT0iMTMiIGxlbmd0aEFkanVzdD0ic3BhY2luZyIgdGV4dExlbmd0aD0iMTE3IiB4PSIyNzAuMDUiIHk9IjEwMC4yODkxIj4mIzI0MDUwOyYjMjA4NTE7JiMzMjg1MjsmIzI3MTY5OyYjMjI0MTE7JiMzMjUzNDsmIzMwNzIxOyYjMzEzNTQ7JiMyMDU0MDs8L3RleHQ+PC9nPjwhLS1saW5rID8/Pz8/IHRvID8/Pz8/Pz8/Pz8/Pz8/LS0+PGcgaWQ9ImxpbmtfJiMyMDg1MTsmIzMyODUyOyYjMjAxMDI7JiMyNzE2OTsmIzIyNDExO18mIzI3MTY5OyYjMjI0MTE7JiMyMDg1MTsmIzMyODUyOyYjMjQ3NzM7JiMyMDkxNzsmIzE5OTgyOyYjMzI1MzQ7JiMzMDcyMTsmIzIyNjM1OyYjMjA4ODk7JiMxOTk4MTsmIzIzNTQ1OyYjMzEyMTY7Ij48cGF0aCBkPSJNMzE3LjM3LDUzLjQgQzM2MS4zNSw3My4xNCA0MjIuMjksMTAwLjMzIDQyOC4wNSwxMDIgQzUwOS45MiwxMjUuNzMgNjA1LjM3LDEzOS40IDY3Ny44MywxNDcuMDUgIiBmaWxsPSJub25lIiBpZD0iJiMyMDg1MTsmIzMyODUyOyYjMjAxMDI7JiMyNzE2OTsmIzIyNDExOy10by0mIzI3MTY5OyYjMjI0MTE7JiMyMDg1MTsmIzMyODUyOyYjMjQ3NzM7JiMyMDkxNzsmIzE5OTgyOyYjMzI1MzQ7JiMzMDcyMTsmIzIyNjM1OyYjMjA4ODk7JiMxOTk4MTsmIzIzNTQ1OyYjMzEyMTY7LTEiIHN0eWxlPSJzdHJva2U6IzE4MTgxODtzdHJva2Utd2lkdGg6MS4wOyIvPjxwb2x5Z29uIGZpbGw9IiMxODE4MTgiIHBvaW50cz0iNjgzLjAxLDE0Ny41OSw2NzQuNDgzMywxNDIuNjYwOSw2NzguMDM4LDE0Ny4wNjE0LDY3My42Mzc1LDE1MC42MTYsNjgzLjAxLDE0Ny41OSIgc3R5bGU9InN0cm9rZTojMTgxODE4O3N0cm9rZS13aWR0aDoxLjA7Ii8+PHRleHQgZmlsbD0iIzAwMDAwMCIgZm9udC1mYW1pbHk9InNhbnMtc2VyaWYiIGZvbnQtc2l6ZT0iMTMiIGxlbmd0aEFkanVzdD0ic3BhY2luZyIgdGV4dExlbmd0aD0iOTEiIHg9IjQyOS4wNSIgeT0iMTAwLjI4OTEiPiYjMjY0MTA7JiMyMDg1MTsmIzMyODUyOyYjMzI1MzQ7JiMzMDcyMTsmIzI2Mzc3OyYjMjA1NDA7PC90ZXh0PjwvZz48IS0tbGluayA/Pz8/PyB0byA/Pz8/Pz8/Pz8tLT48ZyBpZD0ibGlua18mIzIwODUxOyYjMzI4NTI7JiMyMDEwMjsmIzI3MTY5OyYjMjI0MTE7XyYjMjA0NjI7JiMyNTkxMzsmIzI0MDUwOyYjMjA4NTE7JiMzMjg1MjsmIzMyNDY1OyYjMjM0NTA7JiMyNzE2OTsmIzIyNDExOyI+PHBhdGggZD0iTTIyNi45MiwzOC4wOCBDMTUwLjQyLDQ3LjYyIDYsNzAuMTcgMzIuMDUsMTAyIEM1NS43MiwxMzAuOTIgMTUxLjY4LDE0NC42OSAyMjIuMDMsMTUxLjAxICIgZmlsbD0ibm9uZSIgaWQ9IiYjMjA4NTE7JiMzMjg1MjsmIzIwMTAyOyYjMjcxNjk7JiMyMjQxMTstdG8tJiMyMDQ2MjsmIzI1OTEzOyYjMjQwNTA7JiMyMDg1MTsmIzMyODUyOyYjMzI0NjU7JiMyMzQ1MDsmIzI3MTY5OyYjMjI0MTE7IiBzdHlsZT0ic3Ryb2tlOiMxODE4MTg7c3Ryb2tlLXdpZHRoOjEuMDsiLz48cG9seWdvbiBmaWxsPSIjMTgxODE4IiBwb2ludHM9IjIyNy4wNSwxNTEuNDUsMjE4LjQyNTYsMTQ2LjY5MzksMjIyLjA2ODQsMTUxLjAyMTgsMjE3Ljc0MDUsMTU0LjY2NDUsMjI3LjA1LDE1MS40NSIgc3R5bGU9InN0cm9rZTojMTgxODE4O3N0cm9rZS13aWR0aDoxLjA7Ii8+PHRleHQgZmlsbD0iIzAwMDAwMCIgZm9udC1mYW1pbHk9InNhbnMtc2VyaWYiIGZvbnQtc2l6ZT0iMTMiIGxlbmd0aEFkanVzdD0ic3BhY2luZyIgdGV4dExlbmd0aD0iMTk1IiB4PSIzMy4wNSIgeT0iMTAwLjI4OTEiPiYjMjQwNTA7JiMyMDg1MTsmIzMyODUyOyYjMjcxNjk7JiMyMjQxMTsmIzI1MTEwOyYjMzI3NzM7JiMzMTM1NDsmIzIwNTQwOyYjMjcxNjk7JiMyMjQxMTsmIzMyNTM0OyYjMzA3MjE7JiMyNjM3NzsmIzIwNTQwOzwvdGV4dD48L2c+PCEtLWxpbmsgPz8/Pz8/PyB0byA/Pz8/Pz8/LS0+PGcgaWQ9ImxpbmtfJiMyNzgwOTsmIzI2Mzc3OyYjMjA4NTE7JiMzMjg1MjsmIzIwMTAyOyYjMjcxNjk7JiMyMjQxMTtfJiMyMDQ2MjsmIzI1OTEzOyYjMjY0MTA7JiMyMDg1MTsmIzMyODUyOyYjMjkzNjY7JiMyNDU3NzsiPjxwYXRoIGQ9Ik05MjYuMjMsNDYuMjIgQzk1Ny4yMSw1NC44MiA5OTQuODYsNjguMDMgMTAyNS4wNSw4NyBDMTA0Mi4zNiw5Ny44OCAxMDU4LjU3LDExMy45OSAxMDcwLjgxLDEyNy45ICIgZmlsbD0ibm9uZSIgaWQ9IiYjMjc4MDk7JiMyNjM3NzsmIzIwODUxOyYjMzI4NTI7JiMyMDEwMjsmIzI3MTY5OyYjMjI0MTE7LXRvLSYjMjA0NjI7JiMyNTkxMzsmIzI2NDEwOyYjMjA4NTE7JiMzMjg1MjsmIzI5MzY2OyYjMjQ1Nzc7IiBzdHlsZT0ic3Ryb2tlOiMxODE4MTg7c3Ryb2tlLXdpZHRoOjEuMDsiLz48cG9seWdvbiBmaWxsPSIjMTgxODE4IiBwb2ludHM9IjEwNzQuMTYsMTMxLjc2LDEwNzEuMzAxOSwxMjIuMzM1LDEwNzAuODkwOCwxMjcuOTc2OCwxMDY1LjI0ODksMTI3LjU2NTcsMTA3NC4xNiwxMzEuNzYiIHN0eWxlPSJzdHJva2U6IzE4MTgxODtzdHJva2Utd2lkdGg6MS4wOyIvPjx0ZXh0IGZpbGw9IiMwMDAwMDAiIGZvbnQtZmFtaWx5PSJzYW5zLXNlcmlmIiBmb250LXNpemU9IjEzIiBsZW5ndGhBZGp1c3Q9InNwYWNpbmciIHRleHRMZW5ndGg9IjkxIiB4PSIxMDQ1LjA1IiB5PSIxMDAuMjg5MSI+JiMyNjQxMDsmIzIwODUxOyYjMzI4NTI7JiMzMjUzNDsmIzMwNzIxOyYjMzEzNTQ7JiMyMDU0MDs8L3RleHQ+PC9nPjwhLS1saW5rID8/Pz8/Pz8gdG8gPz8/Pz8/Pz8/Pz8/Pz8tLT48ZyBpZD0ibGlua18mIzI3ODA5OyYjMjYzNzc7JiMyMDg1MTsmIzMyODUyOyYjMjAxMDI7JiMyNzE2OTsmIzIyNDExO18mIzI3MTY5OyYjMjI0MTE7JiMyMDg1MTsmIzMyODUyOyYjMjQ3NzM7JiMyMDkxNzsmIzE5OTgyOyYjMzI1MzQ7JiMzMDcyMTsmIzIyNjM1OyYjMjA4ODk7JiMxOTk4MTsmIzIzNTQ1OyYjMzEyMTY7Ij48cGF0aCBkPSJNODg3LjcxLDU3LjIyIEM4OTYuNzUsNzAuODggOTAzLjU4LDg3Ljk3IDg5NS4wNSwxMDIgQzg4OC4yOSwxMTMuMTMgODc4LjQxLDEyMi4wNyA4NjcuMzksMTI5LjIyICIgZmlsbD0ibm9uZSIgaWQ9IiYjMjc4MDk7JiMyNjM3NzsmIzIwODUxOyYjMzI4NTI7JiMyMDEwMjsmIzI3MTY5OyYjMjI0MTE7LXRvLSYjMjcxNjk7JiMyMjQxMTsmIzIwODUxOyYjMzI4NTI7JiMyNDc3MzsmIzIwOTE3OyYjMTk5ODI7JiMzMjUzNDsmIzMwNzIxOyYjMjI2MzU7JiMyMDg4OTsmIzE5OTgxOyYjMjM1NDU7JiMzMTIxNjsiIHN0eWxlPSJzdHJva2U6IzE4MTgxODtzdHJva2Utd2lkdGg6MS4wOyIvPjxwb2x5Z29uIGZpbGw9IiMxODE4MTgiIHBvaW50cz0iODYyLjk1LDEzMS45Nyw4NzIuNzA3MywxMzAuNjMwNSw4NjcuMjAwNCwxMjkuMzM2Nyw4NjguNDk0MSwxMjMuODI5OCw4NjIuOTUsMTMxLjk3IiBzdHlsZT0ic3Ryb2tlOiMxODE4MTg7c3Ryb2tlLXdpZHRoOjEuMDsiLz48dGV4dCBmaWxsPSIjMDAwMDAwIiBmb250LWZhbWlseT0ic2Fucy1zZXJpZiIgZm9udC1zaXplPSIxMyIgbGVuZ3RoQWRqdXN0PSJzcGFjaW5nIiB0ZXh0TGVuZ3RoPSIxMTciIHg9Ijg5OS4wNSIgeT0iMTAwLjI4OTEiPiYjMjQwNTA7JiMyMDg1MTsmIzMyODUyOyYjMjcxNjk7JiMyMjQxMTsmIzMyNTM0OyYjMzA3MjE7JiMzMTM1NDsmIzIwNTQwOzwvdGV4dD48L2c+PCEtLWxpbmsgPz8/Pz8/PyB0byA/Pz8/Pz8/Pz8/Pz8/Py0tPjxnIGlkPSJsaW5rXyYjMjc4MDk7JiMyNjM3NzsmIzIwODUxOyYjMzI4NTI7JiMyMDEwMjsmIzI3MTY5OyYjMjI0MTE7XyYjMjcxNjk7JiMyMjQxMTsmIzIwODUxOyYjMzI4NTI7JiMyNDc3MzsmIzIwOTE3OyYjMTk5ODI7JiMzMjUzNDsmIzMwNzIxOyYjMjI2MzU7JiMyMDg4OTsmIzE5OTgxOyYjMjM1NDU7JiMzMTIxNjsiPjxwYXRoIGQ9Ik04MjEuMjcsNTcuMjYgQzgxMC41LDY1LjI0IDgwMC4zNCw3NS4xNyA3OTQuMDUsODcgQzc4Ny42NCw5OS4wNiA3ODYuMzQsMTE0LjA0IDc4Ni44NywxMjYuOTYgIiBmaWxsPSJub25lIiBpZD0iJiMyNzgwOTsmIzI2Mzc3OyYjMjA4NTE7JiMzMjg1MjsmIzIwMTAyOyYjMjcxNjk7JiMyMjQxMTstdG8tJiMyNzE2OTsmIzIyNDExOyYjMjA4NTE7JiMzMjg1MjsmIzI0NzczOyYjMjA5MTc7JiMxOTk4MjsmIzMyNTM0OyYjMzA3MjE7JiMyMjYzNTsmIzIwODg5OyYjMTk5ODE7JiMyMzU0NTsmIzMxMjE2Oy0xIiBzdHlsZT0ic3Ryb2tlOiMxODE4MTg7c3Ryb2tlLXdpZHRoOjEuMDsiLz48cG9seWdvbiBmaWxsPSIjMTgxODE4IiBwb2ludHM9Ijc4Ny4xNywxMzEuOTksNzkwLjYyMjIsMTIyLjc2Niw3ODYuODY5NywxMjYuOTk5LDc4Mi42MzY3LDEyMy4yNDY1LDc4Ny4xNywxMzEuOTkiIHN0eWxlPSJzdHJva2U6IzE4MTgxODtzdHJva2Utd2lkdGg6MS4wOyIvPjx0ZXh0IGZpbGw9IiMwMDAwMDAiIGZvbnQtZmFtaWx5PSJzYW5zLXNlcmlmIiBmb250LXNpemU9IjEzIiBsZW5ndGhBZGp1c3Q9InNwYWNpbmciIHRleHRMZW5ndGg9IjkxIiB4PSI3OTUuMDUiIHk9IjEwMC4yODkxIj4mIzI2NDEwOyYjMjA4NTE7JiMzMjg1MjsmIzMyNTM0OyYjMzA3MjE7JiMyNjM3NzsmIzIwNTQwOzwvdGV4dD48L2c+PCEtLWxpbmsgPz8/Pz8/PyB0byA/Pz8/Pz8/Pz8tLT48ZyBpZD0ibGlua18mIzI3ODA5OyYjMjYzNzc7JiMyMDg1MTsmIzMyODUyOyYjMjAxMDI7JiMyNzE2OTsmIzIyNDExO18mIzIwNDYyOyYjMjU5MTM7JiMyNDA1MDsmIzIwODUxOyYjMzI4NTI7JiMzMjQ2NTsmIzIzNDUwOyYjMjcxNjk7JiMyMjQxMTsiPjxwYXRoIGQ9Ik04MDcuOCw0My4xIEM3NTAuMTksNTMuMiA2NjAuMzEsNjkuNjggNTgzLjA1LDg3IEM1NTcuMDcsOTIuODIgNTUwLjg5LDk1LjU2IDUyNS4wNSwxMDIgQzQ3Ni4yNiwxMTQuMTYgNDIxLjM5LDEyNy4zNCAzNzguMDUsMTM3LjY0ICIgZmlsbD0ibm9uZSIgaWQ9IiYjMjc4MDk7JiMyNjM3NzsmIzIwODUxOyYjMzI4NTI7JiMyMDEwMjsmIzI3MTY5OyYjMjI0MTE7LXRvLSYjMjA0NjI7JiMyNTkxMzsmIzI0MDUwOyYjMjA4NTE7JiMzMjg1MjsmIzMyNDY1OyYjMjM0NTA7JiMyNzE2OTsmIzIyNDExOyIgc3R5bGU9InN0cm9rZTojMTgxODE4O3N0cm9rZS13aWR0aDoxLjA7Ii8+PHBvbHlnb24gZmlsbD0iIzE4MTgxOCIgcG9pbnRzPSIzNzMuMDksMTM4LjgxLDM4Mi43NzIsMTQwLjYxNTQsMzc3Ljk1MzksMTM3LjY1MTMsMzgwLjkxOCwxMzIuODMzMiwzNzMuMDksMTM4LjgxIiBzdHlsZT0ic3Ryb2tlOiMxODE4MTg7c3Ryb2tlLXdpZHRoOjEuMDsiLz48dGV4dCBmaWxsPSIjMDAwMDAwIiBmb250LWZhbWlseT0ic2Fucy1zZXJpZiIgZm9udC1zaXplPSIxMyIgbGVuZ3RoQWRqdXN0PSJzcGFjaW5nIiB0ZXh0TGVuZ3RoPSIxOTUiIHg9IjU4NC4wNSIgeT0iMTAwLjI4OTEiPiYjMjQwNTA7JiMyMDg1MTsmIzMyODUyOyYjMjcxNjk7JiMyMjQxMTsmIzI1MTEwOyYjMzI3NzM7JiMzMTM1NDsmIzIwNTQwOyYjMjcxNjk7JiMyMjQxMTsmIzMyNTM0OyYjMzA3MjE7JiMyNjM3NzsmIzIwNTQwOzwvdGV4dD48L2c+PCEtLVNSQz1bQW92OUI0YkxXODhkLXpTemN4QnBzUG5MSnJpdGxzWVN5aG5oc3hFNkhndllQMk5GTFlueUVneVI4bC1pa1ZMZnN6T2RFX2dVeHZkc1Y0N1pxdU1oZHhSRFZCQVp6LWR3ZFMtTlJxM0wxcDd3d1ZQREtBRHRKdG93UlhSNEMydVcwMmMxZ3Qtc1FVNnBFUHFHWEt6c2pLNUxlSVgxYnFKWkEtWmdzZjdXTDBLaDFSWkI4QmVXb2Z3bHRGTXFPR3pNbV83dTF6RXFQbnRKTlpJcUdhbjNEWF9hSW5wY2EtSHVIOG1YNnVpcjY5NFNablJGY0VQMGxPX1I3QWc1QzI2ZEtZVVNnVUdIaEE0RDAwMDBdLS0+PC9nPjwvc3ZnPg==;aspect=fixed;imageBackground=default;imageBorder=none;dashed=1;fillStyle=auto;" vertex="1" parent="1">
            <mxGeometry x="-120" y="330" width="1159" height="188" as="geometry" />
          </mxCell>
        </UserObject>
      </root>
    </mxGraphModel>
  </diagram>
</mxfile>
